# xmcd
#
# Track frame offsets: 
#        150
#        29790
#        46112
#        68742
#        87750
#        96685
#        113870
#        133045
#        157187
#        185525
#        199750
#        220785
#
# Disc length: 3147 seconds
#
# Revision: 3
# Processed by: cddbd v1.5.2PL0 Copyright (c) Steve Scherf et al.
# Submitted via: ExactAudioCopyFreeDBPlugin 1.0
#
DISCID=b10c490c
DTITLE=Doug MacLeod - Come To Find
DYEAR=1994
DGENRE=blues
TTITLE0=Bring It On Home
TTITLE1=Since I Left St Louis
TTITLE2=Mystery Woman
TTITLE3=Come To find
TTITLE4=Old Virginia Stomp
TTITLE5=Master's Plan
TTITLE6=Ain't No Grave
TTITLE7=Run With The Devil
TTITLE8=Lost Something This Morning
TTITLE9=Rollin' and Tumblin'
TTITLE10=Any Port In A Storm
TTITLE11=When I Left Missouri
EXTD=AQ-CD-1027\n\nDoug MacLeod:  guitar and vocals\nCharlie Musselwhi
EXTD=te:  harmonica ("Bring It On Home," and "Lost Something This Morn
EXTD=ing"]\nBill Stuve:  acoustic bass\nJimi Bott:  drums\nBlack Cherr
EXTD=y:  back up vocals on "Ain't No Grave"\n
EXTT0=
EXTT1=
EXTT2=
EXTT3=
EXTT4=
EXTT5=
EXTT6=
EXTT7=
EXTT8=
EXTT9=
EXTT10=
EXTT11=
PLAYORDER=
